<svg xmlns="http://www.w3.org/2000/svg" xmlns:xlink="http://www.w3.org/1999/xlink" width="500" zoomAndPan="magnify" viewBox="0 0 375 374.999991" height="500" preserveAspectRatio="xMidYMid meet" version="1.0"><defs><clipPath id="id1"><path d="M 92.578125 73.28125 L 282.328125 73.28125 L 282.328125 288.53125 L 92.578125 288.53125 Z M 92.578125 73.28125 " clip-rule="nonzero"/></clipPath></defs><rect x="-37.5" width="450" fill="#ffffff" y="-37.499999" height="449.999989" fill-opacity="1"/><rect x="-37.5" width="450" fill="#001423" y="-37.499999" height="449.999989" fill-opacity="1"/><rect x="-37.5" width="450" fill="#ffffff" y="-37.499999" height="449.999989" fill-opacity="1"/><rect x="-37.5" width="450" fill="#001423" y="-37.499999" height="449.999989" fill-opacity="1"/><g clip-path="url(#id1)"><path fill="#ffffff" d="M 254.324219 207.207031 C 257.976562 237.9375 239.949219 271.746094 200.691406 285.339844 C 192.183594 287.449219 183.550781 288.5 174.789062 288.492188 C 129.863281 288.492188 93.234375 252.261719 92.578125 207.46875 C 92.675781 204.5625 92.941406 201.765625 93.304688 199.113281 C 95.363281 183.863281 101.683594 168.140625 111.089844 154.886719 C 117.46875 145.902344 124.945312 138.597656 132 134.273438 L 132 206.246094 C 132 207.648438 132.070312 209.046875 132.207031 210.441406 C 132.34375 211.839844 132.550781 213.222656 132.824219 214.597656 C 133.097656 215.972656 133.4375 217.332031 133.84375 218.671875 C 134.25 220.015625 134.722656 221.332031 135.261719 222.628906 C 135.796875 223.925781 136.394531 225.191406 137.054688 226.425781 C 137.714844 227.664062 138.4375 228.863281 139.214844 230.03125 C 139.992188 231.195312 140.828125 232.320312 141.714844 233.40625 C 142.605469 234.488281 143.542969 235.527344 144.535156 236.519531 C 145.527344 237.511719 146.5625 238.453125 147.644531 239.34375 C 148.730469 240.230469 149.851562 241.066406 151.015625 241.847656 C 152.183594 242.625 153.382812 243.347656 154.617188 244.007812 C 155.855469 244.667969 157.117188 245.269531 158.414062 245.804688 C 159.707031 246.34375 161.027344 246.816406 162.367188 247.226562 C 163.707031 247.632812 165.066406 247.972656 166.4375 248.25 C 167.8125 248.523438 169.199219 248.730469 170.59375 248.867188 C 171.988281 249.007812 173.386719 249.078125 174.789062 249.078125 C 175.980469 249.078125 177.171875 249.046875 178.363281 248.984375 C 179.554688 248.921875 180.742188 248.832031 181.929688 248.707031 C 183.113281 248.582031 184.296875 248.425781 185.476562 248.238281 C 186.652344 248.050781 187.824219 247.832031 188.992188 247.585938 C 190.160156 247.335938 191.316406 247.058594 192.46875 246.746094 C 193.621094 246.4375 194.765625 246.097656 195.898438 245.730469 C 197.03125 245.359375 198.15625 244.960938 199.269531 244.53125 C 200.382812 244.101562 201.484375 243.644531 202.574219 243.160156 C 203.660156 242.671875 204.738281 242.15625 205.800781 241.613281 C 206.859375 241.070312 207.90625 240.5 208.941406 239.902344 C 209.972656 239.304688 210.988281 238.679688 211.988281 238.03125 C 212.988281 237.378906 213.96875 236.699219 214.933594 235.996094 C 215.894531 235.296875 216.839844 234.566406 217.765625 233.816406 C 218.691406 233.0625 219.597656 232.285156 220.480469 231.484375 C 221.367188 230.683594 222.230469 229.863281 223.070312 229.015625 C 223.914062 228.171875 224.730469 227.304688 225.527344 226.414062 C 226.324219 225.527344 227.09375 224.617188 227.84375 223.6875 C 228.59375 222.761719 229.316406 221.8125 230.015625 220.84375 C 230.710938 219.878906 231.386719 218.894531 232.03125 217.890625 C 232.679688 216.886719 233.296875 215.867188 233.890625 214.832031 C 234.484375 213.796875 235.050781 212.75 235.589844 211.683594 C 236.128906 210.617188 236.636719 209.539062 237.117188 208.449219 C 237.601562 207.359375 238.054688 206.253906 238.476562 205.136719 C 238.898438 204.023438 239.292969 202.898438 239.660156 201.761719 C 240.023438 200.625 240.359375 199.480469 240.664062 198.328125 C 240.964844 197.171875 241.242188 196.011719 241.484375 194.84375 C 241.726562 193.675781 241.941406 192.5 242.121094 191.324219 C 242.304688 190.144531 242.453125 188.960938 242.574219 187.773438 C 242.695312 186.585938 242.78125 185.394531 242.839844 184.203125 C 242.894531 183.011719 242.921875 181.820312 242.917969 180.625 C 242.910156 179.433594 242.875 178.242188 242.808594 177.050781 C 242.738281 175.859375 242.640625 174.671875 242.507812 173.484375 C 248.585938 184.050781 252.949219 195.628906 254.324219 207.207031 Z M 282.328125 180.90625 C 282.328125 121.582031 234.089844 73.320312 174.789062 73.320312 L 92.578125 73.320312 L 92.578125 148.25 C 93.535156 146.765625 94.527344 145.292969 95.554688 143.855469 C 106.109375 128.988281 119.230469 117.875 131.539062 113.375 L 181.542969 112.796875 C 203.050781 112.796875 224.597656 122.964844 242.222656 141.4375 C 258.675781 158.6875 269.960938 181.6875 273.179688 204.550781 C 274.015625 210.410156 274.3125 216.292969 274.070312 222.207031 C 276.800781 215.664062 278.863281 208.917969 280.253906 201.96875 C 281.644531 195.015625 282.335938 187.996094 282.328125 180.90625 Z M 282.328125 180.90625 " fill-opacity="1" fill-rule="nonzero"/></g></svg>